# xmcd
#
# Track frame offsets: 
#        183
#        18025
#        43520
#        67150
#        86680
#        107125
#        135303
#        178583
#        207393
#        241885
#        266568
#        285138
#
# Disc length: 4394 seconds
#
# Revision: 10
# Processed by: cddbd v1.5.2PL0 Copyright (c) Steve Scherf et al.
# Submitted via: ExactAudioCopy v0.99pb5
#
DISCID=9e11280c
DTITLE=Various Artist - So Blue, So Funky, Heroes Of The Hammond
DYEAR=1991
DGENRE=Jazz
TTITLE0=Jimmy McGriff - All About My Girl
TTITLE1=Big John Patton - The Silver Metre
TTITLE2=Jimmy Smith - I'm Movin' On
TTITLE3=Freddie Roach - Brown Sugar
TTITLE4=Fred Jackson - Hootin' 'N' Tootin'
TTITLE5=Baby Face Willette - Face to Face
TTITLE6=Larry Young - Plaza de Toros
TTITLE7=George Braith - Boop Bop Bing Bash
TTITLE8=Big John Patton - Fat Judy
TTITLE9=Lou Donaldson - Everything I Do Gonh Be Funky (From Now On)
TTITLE10=Jack McDuff - Butter (For Yo' Popcorn)
TTITLE11=Grant Green - Ain't It Funky Now
EXTD=YEAR: 1991
EXTT0=Jimmy McGriff
EXTT1=Big John Patten
EXTT2=Jimmy Smith
EXTT3=Freddie Roach
EXTT4=Fred Jackson
EXTT5=Babyface Willette
EXTT6=Larry Young
EXTT7=George Braith
EXTT8=Big John Patton
EXTT9=Lou Donaldson
EXTT10=Brother Jack MacDuff
EXTT11=Grant Green
PLAYORDER=
